<svg id="visual" viewBox="0 0 900 600" width="900" height="600" xmlns="http://www.w3.org/2000/svg" xmlns:xlink="http://www.w3.org/1999/xlink" version="1.1"><g stroke-width="1" stroke-linejoin="bevel"><path d="M394 312L280.5 252L260 363Z" fill="#12364c" stroke="#12364c"></path><path d="M280.5 252L207 301L260 363Z" fill="#0a1f2e" stroke="#0a1f2e"></path><path d="M266 517L311.5 435L260 363Z" fill="#174761" stroke="#174761"></path><path d="M260 363L311.5 435L394 312Z" fill="#174761" stroke="#174761"></path><path d="M311.5 435L362.5 446L394 312Z" fill="#12364c" stroke="#12364c"></path><path d="M280.5 252L185 250L207 301Z" fill="#1b5876" stroke="#1b5876"></path><path d="M394 312L409 171L280.5 252Z" fill="#194f6b" stroke="#194f6b"></path><path d="M280.5 252L312.5 145L185 250Z" fill="#0d2738" stroke="#0d2738"></path><path d="M409 171L312.5 145L280.5 252Z" fill="#174761" stroke="#174761"></path><path d="M409 171L382.5 137L312.5 145Z" fill="#1c6181" stroke="#1c6181"></path><path d="M185 250L128.5 308L207 301Z" fill="#12364c" stroke="#12364c"></path><path d="M207 301L128.5 308L260 363Z" fill="#0d2738" stroke="#0d2738"></path><path d="M362.5 446L487 417L394 312Z" fill="#061825" stroke="#061825"></path><path d="M597.5 240L487 124L409 171Z" fill="#0a1f2e" stroke="#0a1f2e"></path><path d="M150.5 512L266 517L260 363Z" fill="#0f2e42" stroke="#0f2e42"></path><path d="M311.5 435L266 517L362.5 446Z" fill="#1c6181" stroke="#1c6181"></path><path d="M362.5 446L445 509L487 417Z" fill="#0d2738" stroke="#0d2738"></path><path d="M297.5 600L445 509L362.5 446Z" fill="#061825" stroke="#061825"></path><path d="M512.5 504L530.5 426L487 417Z" fill="#153e56" stroke="#153e56"></path><path d="M487 417L604.5 282L394 312Z" fill="#00101c" stroke="#00101c"></path><path d="M382.5 0L203 97L312.5 145Z" fill="#0f2e42" stroke="#0f2e42"></path><path d="M312.5 145L203 97L185 250Z" fill="#153e56" stroke="#153e56"></path><path d="M185 250L71.5 205L128.5 308Z" fill="#0f2e42" stroke="#0f2e42"></path><path d="M409 171L487 124L382.5 137Z" fill="#194f6b" stroke="#194f6b"></path><path d="M382.5 137L382.5 0L312.5 145Z" fill="#12364c" stroke="#12364c"></path><path d="M597.5 240L409 171L394 312Z" fill="#153e56" stroke="#153e56"></path><path d="M70.5 445L150.5 512L260 363Z" fill="#061825" stroke="#061825"></path><path d="M445 509L512.5 504L487 417Z" fill="#0f2e42" stroke="#0f2e42"></path><path d="M114.5 108L71.5 205L185 250Z" fill="#174761" stroke="#174761"></path><path d="M128.5 308L70.5 445L260 363Z" fill="#061825" stroke="#061825"></path><path d="M0 323L70.5 445L128.5 308Z" fill="#061825" stroke="#061825"></path><path d="M179 600L297.5 600L266 517Z" fill="#1b5876" stroke="#1b5876"></path><path d="M266 517L297.5 600L362.5 446Z" fill="#1b5876" stroke="#1b5876"></path><path d="M445 509L505 600L512.5 504Z" fill="#0d2738" stroke="#0d2738"></path><path d="M635 412L604.5 282L530.5 426Z" fill="#0a1f2e" stroke="#0a1f2e"></path><path d="M530.5 426L604.5 282L487 417Z" fill="#00101c" stroke="#00101c"></path><path d="M604.5 282L597.5 240L394 312Z" fill="#061825" stroke="#061825"></path><path d="M203 97L114.5 108L185 250Z" fill="#194f6b" stroke="#194f6b"></path><path d="M105.5 600L179 600L150.5 512Z" fill="#0f2e42" stroke="#0f2e42"></path><path d="M150.5 512L179 600L266 517Z" fill="#153e56" stroke="#153e56"></path><path d="M71.5 205L0 323L128.5 308Z" fill="#174761" stroke="#174761"></path><path d="M0 233L0 323L71.5 205Z" fill="#061825" stroke="#061825"></path><path d="M597.5 240L576.5 128L487 124Z" fill="#12364c" stroke="#12364c"></path><path d="M445 0L382.5 0L382.5 137Z" fill="#00101c" stroke="#00101c"></path><path d="M445 0L382.5 137L487 124Z" fill="#0d2738" stroke="#0d2738"></path><path d="M203 97L137.5 0L114.5 108Z" fill="#153e56" stroke="#153e56"></path><path d="M0 102L0 233L71.5 205Z" fill="#0f2e42" stroke="#0f2e42"></path><path d="M512.5 504L635 412L530.5 426Z" fill="#1c6181" stroke="#1c6181"></path><path d="M604.5 282L719 243L597.5 240Z" fill="#00101c" stroke="#00101c"></path><path d="M597.5 240L719 243L576.5 128Z" fill="#1b5876" stroke="#1b5876"></path><path d="M297.5 600L505 600L445 509Z" fill="#1c6181" stroke="#1c6181"></path><path d="M512.5 504L693 540L635 412Z" fill="#12364c" stroke="#12364c"></path><path d="M512.5 0L445 0L487 124Z" fill="#061825" stroke="#061825"></path><path d="M382.5 0L189 0L203 97Z" fill="#174761" stroke="#174761"></path><path d="M114.5 108L0 102L71.5 205Z" fill="#0d2738" stroke="#0d2738"></path><path d="M0 323L0 441L70.5 445Z" fill="#061825" stroke="#061825"></path><path d="M0 553L105.5 600L150.5 512Z" fill="#061825" stroke="#061825"></path><path d="M0 553L150.5 512L70.5 445Z" fill="#153e56" stroke="#153e56"></path><path d="M505 600L547.5 600L512.5 504Z" fill="#153e56" stroke="#153e56"></path><path d="M189 0L137.5 0L203 97Z" fill="#0f2e42" stroke="#0f2e42"></path><path d="M576.5 128L512.5 0L487 124Z" fill="#0a1f2e" stroke="#0a1f2e"></path><path d="M0 0L0 102L114.5 108Z" fill="#0a1f2e" stroke="#0a1f2e"></path><path d="M0 441L0 553L70.5 445Z" fill="#0d2738" stroke="#0d2738"></path><path d="M730 260L719 243L604.5 282Z" fill="#174761" stroke="#174761"></path><path d="M576.5 128L641 0L512.5 0Z" fill="#061825" stroke="#061825"></path><path d="M730 260L604.5 282L635 412Z" fill="#1c6181" stroke="#1c6181"></path><path d="M794.5 325L730 260L635 412Z" fill="#194f6b" stroke="#194f6b"></path><path d="M0 553L0 600L105.5 600Z" fill="#061825" stroke="#061825"></path><path d="M547.5 600L641 600L512.5 504Z" fill="#0a1f2e" stroke="#0a1f2e"></path><path d="M641 600L693 540L512.5 504Z" fill="#0f2e42" stroke="#0f2e42"></path><path d="M137.5 0L0 0L114.5 108Z" fill="#0d2738" stroke="#0d2738"></path><path d="M689 49L576.5 128L719 243Z" fill="#1b5876" stroke="#1b5876"></path><path d="M689 49L641 0L576.5 128Z" fill="#12364c" stroke="#12364c"></path><path d="M779.5 200L689 49L719 243Z" fill="#061825" stroke="#061825"></path><path d="M794.5 325L779.5 200L730 260Z" fill="#0a1f2e" stroke="#0a1f2e"></path><path d="M730 260L779.5 200L719 243Z" fill="#153e56" stroke="#153e56"></path><path d="M763.5 521L794.5 325L635 412Z" fill="#1c6181" stroke="#1c6181"></path><path d="M770.5 600L763.5 521L693 540Z" fill="#12364c" stroke="#12364c"></path><path d="M693 540L763.5 521L635 412Z" fill="#00101c" stroke="#00101c"></path><path d="M763.5 521L835.5 353L794.5 325Z" fill="#12364c" stroke="#12364c"></path><path d="M794.5 325L900 256L779.5 200Z" fill="#0f2e42" stroke="#0f2e42"></path><path d="M825.5 70L689 49L779.5 200Z" fill="#153e56" stroke="#153e56"></path><path d="M825.5 70L747.5 0L689 49Z" fill="#12364c" stroke="#12364c"></path><path d="M689 49L747.5 0L641 0Z" fill="#0d2738" stroke="#0d2738"></path><path d="M763.5 521L900 415L835.5 353Z" fill="#1b5876" stroke="#1b5876"></path><path d="M641 600L770.5 600L693 540Z" fill="#1c6181" stroke="#1c6181"></path><path d="M900 215L825.5 70L779.5 200Z" fill="#194f6b" stroke="#194f6b"></path><path d="M835.5 353L900 256L794.5 325Z" fill="#0f2e42" stroke="#0f2e42"></path><path d="M900 415L900 256L835.5 353Z" fill="#061825" stroke="#061825"></path><path d="M900 536L900 415L763.5 521Z" fill="#174761" stroke="#174761"></path><path d="M900 256L900 215L779.5 200Z" fill="#194f6b" stroke="#194f6b"></path><path d="M770.5 600L900 536L763.5 521Z" fill="#194f6b" stroke="#194f6b"></path><path d="M900 215L900 54L825.5 70Z" fill="#1b5876" stroke="#1b5876"></path><path d="M825.5 70L900 0L747.5 0Z" fill="#00101c" stroke="#00101c"></path><path d="M770.5 600L900 600L900 536Z" fill="#1b5876" stroke="#1b5876"></path><path d="M900 54L900 0L825.5 70Z" fill="#1b5876" stroke="#1b5876"></path></g></svg>