<svg id="visual" viewBox="0 0 960 540" width="960" height="540" xmlns="http://www.w3.org/2000/svg" xmlns:xlink="http://www.w3.org/1999/xlink" version="1.1"><g stroke-width="1" stroke-linejoin="bevel"><path d="M533 289L519 423L584 369Z" fill="#0a1f2e" stroke="#0a1f2e"></path><path d="M519 423L552 444L584 369Z" fill="#1b5876" stroke="#1b5876"></path><path d="M533 289L398 363L519 423Z" fill="#1b5876" stroke="#1b5876"></path><path d="M519 423L520 540L552 444Z" fill="#00101c" stroke="#00101c"></path><path d="M571 195L481 201L533 289Z" fill="#174761" stroke="#174761"></path><path d="M533 289L481 201L398 363Z" fill="#0a1f2e" stroke="#0a1f2e"></path><path d="M736 249L571 195L533 289Z" fill="#174761" stroke="#174761"></path><path d="M725 399L702 360L584 369Z" fill="#0a1f2e" stroke="#0a1f2e"></path><path d="M584 369L702 360L533 289Z" fill="#0d2738" stroke="#0d2738"></path><path d="M380 540L520 540L519 423Z" fill="#00101c" stroke="#00101c"></path><path d="M552 444L725 399L584 369Z" fill="#1b5876" stroke="#1b5876"></path><path d="M520 540L589 540L552 444Z" fill="#194f6b" stroke="#194f6b"></path><path d="M398 363L355 470L519 423Z" fill="#12364c" stroke="#12364c"></path><path d="M589 540L725 399L552 444Z" fill="#0f2e42" stroke="#0f2e42"></path><path d="M355 470L380 540L519 423Z" fill="#1c6181" stroke="#1c6181"></path><path d="M772 116L550 126L571 195Z" fill="#153e56" stroke="#153e56"></path><path d="M571 195L550 126L481 201Z" fill="#1c6181" stroke="#1c6181"></path><path d="M550 126L494 122L481 201Z" fill="#0f2e42" stroke="#0f2e42"></path><path d="M481 201L362 167L398 363Z" fill="#061825" stroke="#061825"></path><path d="M398 363L239 459L355 470Z" fill="#174761" stroke="#174761"></path><path d="M786 311L736 249L702 360Z" fill="#0f2e42" stroke="#0f2e42"></path><path d="M702 360L736 249L533 289Z" fill="#0f2e42" stroke="#0f2e42"></path><path d="M494 122L362 167L481 201Z" fill="#12364c" stroke="#12364c"></path><path d="M362 167L268 263L398 363Z" fill="#12364c" stroke="#12364c"></path><path d="M355 470L262 540L380 540Z" fill="#061825" stroke="#061825"></path><path d="M725 399L786 311L702 360Z" fill="#12364c" stroke="#12364c"></path><path d="M494 122L354 116L362 167Z" fill="#1c6181" stroke="#1c6181"></path><path d="M362 167L284 69L268 263Z" fill="#0f2e42" stroke="#0f2e42"></path><path d="M201 321L239 459L398 363Z" fill="#061825" stroke="#061825"></path><path d="M589 540L760 540L725 399Z" fill="#12364c" stroke="#12364c"></path><path d="M725 399L860 406L786 311Z" fill="#194f6b" stroke="#194f6b"></path><path d="M239 459L262 540L355 470Z" fill="#12364c" stroke="#12364c"></path><path d="M174 208L201 321L268 263Z" fill="#0a1f2e" stroke="#0a1f2e"></path><path d="M268 263L201 321L398 363Z" fill="#1b5876" stroke="#1b5876"></path><path d="M860 406L838 245L786 311Z" fill="#1b5876" stroke="#1b5876"></path><path d="M786 311L838 245L736 249Z" fill="#0f2e42" stroke="#0f2e42"></path><path d="M736 249L772 116L571 195Z" fill="#0d2738" stroke="#0d2738"></path><path d="M760 540L860 406L725 399Z" fill="#153e56" stroke="#153e56"></path><path d="M794 116L772 116L736 249Z" fill="#194f6b" stroke="#194f6b"></path><path d="M590 0L464 0L494 122Z" fill="#061825" stroke="#061825"></path><path d="M494 122L410 0L354 116Z" fill="#061825" stroke="#061825"></path><path d="M590 0L494 122L550 126Z" fill="#1b5876" stroke="#1b5876"></path><path d="M772 116L590 0L550 126Z" fill="#194f6b" stroke="#194f6b"></path><path d="M838 245L794 116L736 249Z" fill="#0a1f2e" stroke="#0a1f2e"></path><path d="M772 116L772 0L590 0Z" fill="#12364c" stroke="#12364c"></path><path d="M410 0L284 69L354 116Z" fill="#061825" stroke="#061825"></path><path d="M354 116L284 69L362 167Z" fill="#061825" stroke="#061825"></path><path d="M464 0L410 0L494 122Z" fill="#194f6b" stroke="#194f6b"></path><path d="M284 69L174 208L268 263Z" fill="#00101c" stroke="#00101c"></path><path d="M201 321L137 476L239 459Z" fill="#0a1f2e" stroke="#0a1f2e"></path><path d="M239 459L137 476L262 540Z" fill="#1b5876" stroke="#1b5876"></path><path d="M109 329L137 476L201 321Z" fill="#0a1f2e" stroke="#0a1f2e"></path><path d="M174 208L109 329L201 321Z" fill="#153e56" stroke="#153e56"></path><path d="M760 540L894 540L860 406Z" fill="#0a1f2e" stroke="#0a1f2e"></path><path d="M860 406L960 277L838 245Z" fill="#0f2e42" stroke="#0f2e42"></path><path d="M0 540L128 540L137 476Z" fill="#153e56" stroke="#153e56"></path><path d="M137 476L128 540L262 540Z" fill="#0a1f2e" stroke="#0a1f2e"></path><path d="M410 0L269 0L284 69Z" fill="#061825" stroke="#061825"></path><path d="M284 69L147 64L174 208Z" fill="#00101c" stroke="#00101c"></path><path d="M0 204L0 354L109 329Z" fill="#00101c" stroke="#00101c"></path><path d="M794 116L772 0L772 116Z" fill="#1c6181" stroke="#1c6181"></path><path d="M816 0L772 0L794 116Z" fill="#0f2e42" stroke="#0f2e42"></path><path d="M894 540L960 398L860 406Z" fill="#061825" stroke="#061825"></path><path d="M838 245L960 131L794 116Z" fill="#0a1f2e" stroke="#0a1f2e"></path><path d="M960 398L960 277L860 406Z" fill="#0a1f2e" stroke="#0a1f2e"></path><path d="M960 131L816 0L794 116Z" fill="#0a1f2e" stroke="#0a1f2e"></path><path d="M960 277L960 210L838 245Z" fill="#0f2e42" stroke="#0f2e42"></path><path d="M269 0L147 64L284 69Z" fill="#153e56" stroke="#153e56"></path><path d="M894 540L960 540L960 398Z" fill="#194f6b" stroke="#194f6b"></path><path d="M960 210L960 131L838 245Z" fill="#0f2e42" stroke="#0f2e42"></path><path d="M0 204L109 329L174 208Z" fill="#0d2738" stroke="#0d2738"></path><path d="M109 329L0 400L137 476Z" fill="#1b5876" stroke="#1b5876"></path><path d="M0 354L0 400L109 329Z" fill="#1c6181" stroke="#1c6181"></path><path d="M147 64L0 204L174 208Z" fill="#174761" stroke="#174761"></path><path d="M269 0L112 0L147 64Z" fill="#194f6b" stroke="#194f6b"></path><path d="M0 60L0 204L147 64Z" fill="#1b5876" stroke="#1b5876"></path><path d="M0 400L0 540L137 476Z" fill="#153e56" stroke="#153e56"></path><path d="M960 131L960 0L816 0Z" fill="#1b5876" stroke="#1b5876"></path><path d="M112 0L0 60L147 64Z" fill="#0f2e42" stroke="#0f2e42"></path><path d="M112 0L0 0L0 60Z" fill="#174761" stroke="#174761"></path></g></svg>